<svg xmlns="http://www.w3.org/2000/svg" viewBox="0 0 861 772" width="861" height="772">
	<style>
		tspan { white-space:pre }
		.shp0 { fill: #f2f2f2 } 
		.shp1 { fill: #57b894 } 
		.shp2 { fill: none;stroke: #3f3d56 } 
		.shp3 { fill: #1cc6af } 
		.shp4 { opacity: 0.102;fill: #000000 } 
		.shp5 { fill: #ff6584 } 
		.shp6 { fill: #fbbebe } 
		.shp7 { fill: #373636 } 
		.shp8 { fill: #383737 } 
		.shp9 { fill: #2f2e41 } 
	</style>
	<path id="Layer" class="shp0" d="M449.78 771.92C293.28 771.92 166.78 752.7 166.78 728.92C166.78 705.15 293.28 685.92 449.78 685.92C606.28 685.92 732.78 705.15 732.78 728.92C732.78 752.7 606.28 771.92 449.78 771.92Z" />
	<path id="Layer" class="shp1" d="M627.59 576.71C633.73 578.94 640.56 578.16 646.04 574.6C651.52 571.04 655.01 565.11 655.46 558.59C655.92 552.07 653.28 545.72 648.35 541.43C643.41 537.15 636.75 535.43 630.36 536.79L630.88 547.51L625.81 538.33C624.59 538.9 623.42 539.6 622.32 540.41C621.23 541.21 620.22 542.12 619.31 543.13C618.39 544.13 617.58 545.22 616.88 546.38C616.18 547.54 615.59 548.77 615.13 550.05C614.96 550.5 614.82 550.96 614.68 551.42C614.55 551.88 614.43 552.35 614.33 552.82C614.23 553.29 614.15 553.77 614.08 554.24C614.02 554.72 613.97 555.2 613.93 555.68C613.77 557.92 613.98 560.17 614.54 562.35C615.1 564.53 616.01 566.6 617.24 568.48C618.46 570.37 619.98 572.04 621.74 573.44C623.5 574.84 625.48 575.94 627.59 576.71L627.59 576.71Z" />
	<path id="Layer" class="shp2" d="M652.67 700.95C650.88 691.84 658.63 683.77 666.29 678.52C673.95 673.27 682.89 668.11 685.51 659.2C689.26 646.4 678.08 634.67 669.37 624.56C667.76 622.68 666.2 620.76 664.7 618.8C663.2 616.83 661.76 614.82 660.38 612.77C659 610.72 657.68 608.63 656.42 606.5C655.17 604.37 653.97 602.2 652.85 600C651.03 596.47 649.37 592.77 648.89 588.83C648.21 583.16 650.03 577.51 651.87 572.1C657.99 554.06 664.53 536.18 671.5 518.45" />
	<path id="Layer" class="shp2" d="M628.45 573.95C634.59 576.18 641.42 575.4 646.9 571.84C652.38 568.28 655.87 562.35 656.32 555.83C656.77 549.31 654.14 542.96 649.2 538.68C644.27 534.39 637.61 532.67 631.22 534.04L631.74 544.75L626.67 535.57C625.44 536.14 624.27 536.84 623.18 537.65C622.09 538.45 621.08 539.36 620.16 540.37C619.25 541.37 618.44 542.46 617.73 543.62C617.03 544.79 616.45 546.01 615.99 547.29C615.82 547.74 615.67 548.2 615.54 548.66C615.41 549.12 615.29 549.59 615.19 550.06C615.09 550.53 615.01 551.01 614.94 551.48C614.87 551.96 614.82 552.44 614.79 552.92C614.63 555.16 614.84 557.42 615.4 559.59C615.96 561.77 616.87 563.84 618.09 565.72C619.32 567.61 620.84 569.28 622.6 570.68C624.36 572.08 626.33 573.18 628.45 573.95L628.45 573.95Z" />
	<path id="Layer" class="shp1" d="M650.12 514.75C650.71 513.11 651.51 511.56 652.49 510.13C653.47 508.69 654.62 507.38 655.92 506.23C657.23 505.08 658.67 504.1 660.22 503.31C661.77 502.52 663.41 501.93 665.1 501.55L666.82 511.73L669.99 501.04C679.04 501.17 686.97 507.14 689.6 515.8C692.23 524.47 688.95 533.83 681.5 538.97C674.05 544.12 664.13 543.85 656.97 538.32C649.8 532.79 647.04 523.26 650.12 514.75L650.12 514.75Z" />
	<path id="Layer" class="shp2" d="M651.27 511.07C651.86 509.44 652.65 507.88 653.63 506.45C654.61 505.01 655.76 503.7 657.07 502.56C658.37 501.41 659.81 500.43 661.36 499.64C662.91 498.85 664.55 498.25 666.25 497.87L667.96 508.06L671.14 497.36C680.19 497.5 688.11 503.46 690.74 512.13C693.37 520.79 690.1 530.16 682.65 535.3C675.19 540.44 665.28 540.17 658.11 534.64C650.95 529.11 648.18 519.58 651.27 511.07L651.27 511.07Z" />
	<path id="Layer" class="shp1" d="M665.72 624.76C670.52 626.51 675.8 626.42 680.54 624.52C685.29 622.62 689.17 619.05 691.44 614.47C693.72 609.89 694.23 604.64 692.89 599.71C691.54 594.78 688.42 590.52 684.14 587.74L681.69 595.96L679.96 585.66C679.96 585.65 679.95 585.65 679.95 585.65C679.95 585.65 679.94 585.65 679.94 585.65C679.93 585.64 679.93 585.64 679.92 585.64C679.92 585.64 679.91 585.64 679.91 585.64C674.72 583.75 668.99 584 663.99 586.34C658.99 588.68 655.12 592.91 653.24 598.1C651.35 603.29 651.61 609.02 653.95 614.02C656.29 619.02 660.52 622.88 665.72 624.76L665.72 624.76Z" />
	<path id="Layer" class="shp2" d="M666.71 621.04C671.51 622.78 676.79 622.7 681.53 620.8C686.28 618.9 690.16 615.32 692.43 610.75C694.71 606.17 695.22 600.92 693.88 595.99C692.53 591.06 689.41 586.8 685.13 584.02L682.68 592.24L680.95 581.93C680.95 581.93 680.94 581.93 680.94 581.93C680.94 581.92 680.93 581.92 680.93 581.92C680.92 581.92 680.92 581.92 680.91 581.92C680.91 581.91 680.9 581.91 680.9 581.91C675.71 580.02 669.98 580.28 664.98 582.62C659.98 584.95 656.11 589.18 654.23 594.37C652.34 599.56 652.6 605.29 654.94 610.29C657.28 615.29 661.51 619.16 666.71 621.04L666.71 621.04Z" />
	<path id="Layer" class="shp1" d="M644.05 659.33C645.75 669.01 654.01 676.18 663.84 676.52C673.67 676.85 682.38 670.25 684.74 660.7C687.09 651.15 682.43 641.25 673.56 636.99C664.7 632.72 654.06 635.24 648.06 643.03L657.33 656.99L644.66 649.58C644.42 650.36 644.22 651.16 644.07 651.97C643.92 652.78 643.82 653.59 643.77 654.42C643.72 655.24 643.72 656.06 643.76 656.88C643.81 657.7 643.91 658.52 644.05 659.33Z" />
	<path id="Layer" class="shp2" d="M644.91 656.57C646.61 666.26 654.86 673.43 664.69 673.76C674.52 674.09 683.24 667.49 685.59 657.94C687.94 648.39 683.28 638.5 674.42 634.23C665.56 629.96 654.92 632.48 648.92 640.27L658.19 654.23L645.52 646.82C645.28 647.6 645.08 648.4 644.93 649.21C644.78 650.02 644.68 650.84 644.63 651.66C644.58 652.48 644.57 653.3 644.62 654.12C644.67 654.94 644.76 655.76 644.91 656.57L644.91 656.57Z" />
	<path id="Layer" class="shp0" d="M586.76 113.84C587.15 106.42 588.94 99.15 592.05 92.41C595.16 85.67 599.52 79.58 604.9 74.47C610.29 69.36 616.6 65.32 623.49 62.57C630.39 59.82 637.74 58.41 645.16 58.41C646.94 58.41 648.7 58.5 650.43 58.66C657.27 46.9 667.06 37.15 678.85 30.36C690.63 23.58 703.98 20.01 717.58 20C731.17 19.99 744.53 23.55 756.32 30.33C768.11 37.1 777.92 46.84 784.76 58.59C786.23 58.48 787.7 58.41 789.2 58.41C796.62 58.41 803.97 59.82 810.87 62.57C817.76 65.32 824.07 69.36 829.46 74.47C834.84 79.58 839.2 85.67 842.31 92.41C845.42 99.15 847.21 106.42 847.6 113.84" />
	<path id="Layer" class="shp2" d="M598.94 109.34C599.33 101.93 601.12 94.65 604.23 87.91C607.34 81.17 611.7 75.08 617.08 69.97C622.47 64.86 628.78 60.82 635.67 58.07C642.57 55.32 649.92 53.91 657.35 53.91C659.12 53.91 660.88 54 662.62 54.16C669.45 42.4 679.24 32.65 691.03 25.86C702.81 19.08 716.17 15.51 729.76 15.5C743.36 15.49 756.72 19.05 768.5 25.83C780.29 32.6 790.1 42.35 796.94 54.09C798.41 53.98 799.88 53.91 801.38 53.91C808.8 53.91 816.16 55.32 823.05 58.07C829.95 60.82 836.25 64.86 841.64 69.97C847.02 75.08 851.38 81.17 854.49 87.91C857.6 94.65 859.39 101.93 859.78 109.34" />
	<path id="Layer" class="shp0" d="M161.76 391.84C162.15 384.42 163.94 377.15 167.05 370.41C170.16 363.67 174.52 357.58 179.9 352.47C185.29 347.36 191.6 343.32 198.49 340.57C205.39 337.82 212.74 336.41 220.16 336.41C221.94 336.41 223.7 336.5 225.43 336.66C232.27 324.9 242.06 315.15 253.85 308.36C265.63 301.58 278.98 298.01 292.58 298C306.17 297.99 319.53 301.55 331.32 308.33C343.11 315.1 352.92 324.84 359.76 336.59C361.23 336.48 362.7 336.41 364.2 336.41C371.62 336.41 378.97 337.82 385.87 340.57C392.76 343.32 399.07 347.36 404.46 352.47C409.84 357.58 414.2 363.67 417.31 370.41C420.42 377.15 422.21 384.42 422.6 391.84" />
	<path id="Layer" class="shp2" d="M173.94 387.34C174.33 379.93 176.12 372.65 179.23 365.91C182.34 359.17 186.7 353.08 192.08 347.97C197.47 342.86 203.78 338.82 210.67 336.07C217.57 333.32 224.92 331.91 232.35 331.91C234.12 331.91 235.88 332 237.62 332.16C244.45 320.4 254.24 310.65 266.03 303.86C277.81 297.08 291.17 293.51 304.76 293.5C318.36 293.49 331.72 297.05 343.5 303.83C355.29 310.6 365.1 320.35 371.94 332.09C373.41 331.98 374.88 331.91 376.38 331.91C383.8 331.91 391.16 333.32 398.05 336.07C404.95 338.82 411.25 342.86 416.64 347.97C422.02 353.08 426.38 359.17 429.49 365.91C432.6 372.65 434.39 379.93 434.78 387.34" />
	<path id="Layer" class="shp0" d="M37.76 98.84C38.15 91.42 39.94 84.15 43.05 77.41C46.16 70.67 50.52 64.58 55.9 59.47C61.29 54.36 67.6 50.32 74.49 47.57C81.39 44.82 88.74 43.41 96.16 43.41C97.94 43.41 99.7 43.5 101.43 43.66C108.27 31.9 118.06 22.15 129.85 15.36C141.63 8.58 154.98 5.01 168.58 5C182.17 4.99 195.53 8.55 207.32 15.33C219.11 22.1 228.92 31.84 235.76 43.59C237.23 43.48 238.7 43.41 240.2 43.41C247.62 43.41 254.97 44.82 261.87 47.57C268.76 50.32 275.07 54.36 280.46 59.47C285.84 64.58 290.2 70.67 293.31 77.41C296.42 84.15 298.21 91.42 298.6 98.84" />
	<path id="Layer" class="shp2" d="M49.94 94.34C50.33 86.93 52.12 79.65 55.23 72.91C58.34 66.17 62.7 60.08 68.08 54.97C73.47 49.86 79.78 45.82 86.67 43.07C93.57 40.32 100.92 38.91 108.35 38.91C110.12 38.91 111.88 39 113.62 39.16C120.45 27.4 130.24 17.65 142.03 10.86C153.81 4.08 167.17 0.51 180.76 0.5C194.36 0.49 207.72 4.05 219.5 10.83C231.29 17.6 241.1 27.35 247.94 39.09C249.41 38.98 250.88 38.91 252.38 38.91C259.8 38.91 267.16 40.32 274.05 43.07C280.95 45.82 287.25 49.86 292.64 54.97C298.02 60.08 302.38 66.17 305.49 72.91C308.6 79.65 310.39 86.93 310.78 94.34" />
	<path id="Layer" class="shp3" d="M295.05 217.47C295.05 217.47 400.17 269.67 419.02 262.42C437.87 255.17 444.4 190.65 444.4 190.65L366.82 176.15L295.05 217.47Z" />
	<path id="Layer" class="shp4" d="M295.05 217.47C295.05 217.47 400.17 269.67 419.02 262.42C437.87 255.17 444.4 190.65 444.4 190.65L366.82 176.15L295.05 217.47Z" />
	<path id="Layer" class="shp5" d="M444.03 139.54L512.9 139.54L512.9 199.71L444.03 199.71L444.03 139.54Z" />
	<path id="Layer" class="shp4" d="M444.03 139.54L512.9 139.54L512.9 199.71L444.03 199.71L444.03 139.54Z" />
	<path id="Layer" class="shp6" d="M381.32 395.81C381.32 395.81 378.42 458.89 398 457.44C417.57 455.99 398 397.99 398 397.99L381.32 395.81Z" />
	<path id="Layer" class="shp6" d="M461.79 148.6C461.79 148.6 466.14 176.15 458.17 179.77C450.2 183.4 445.12 186.3 445.12 186.3L463.24 198.62L496.59 200.8L505.29 194.27L513.27 187.02C513.27 187.02 500.22 184.12 500.22 177.6C500.22 171.08 499.49 151.5 499.49 151.5L461.79 148.6Z" />
	<path id="Layer" class="shp4" d="M461.79 148.6C461.79 148.6 466.14 176.15 458.17 179.77C450.2 183.4 445.12 186.3 445.12 186.3L463.24 198.62L496.59 200.8L505.29 194.27L513.27 187.02C513.27 187.02 500.22 184.12 500.22 177.6C500.22 171.08 499.49 151.5 499.49 151.5L461.79 148.6Z" />
	<path id="Layer" class="shp7" d="M416.12 406.69C416.12 406.69 395.1 474.11 395.1 523.41C395.1 523.41 360.3 601.7 361.75 640.13L353.05 693.05L365.37 697.4L374.8 689.43C374.8 689.43 377.7 661.15 387.12 647.38C396.55 633.6 418.3 568.36 418.3 568.36C418.3 568.36 476.29 446.56 474.12 429.16C471.94 411.76 416.12 406.69 416.12 406.69Z" />
	<path id="Layer" class="shp8" d="M544.44 391.46C544.44 391.46 558.21 397.99 538.64 513.98C538.64 513.98 549.52 590.83 540.09 632.88L538.64 674.93L523.42 674.93L520.52 670.58C520.52 670.58 519.79 632.88 514.72 622.73C509.64 612.58 505.29 553.86 505.29 553.86C505.29 553.86 482.09 434.24 487.17 424.09C492.24 413.94 544.44 391.46 544.44 391.46Z" />
	<path id="Layer" class="shp9" d="M350.87 680.73C350.87 680.73 355.95 692.33 365.37 689.43C374.8 686.53 376.97 686.53 376.97 686.53C376.97 686.53 370.45 719.87 372.62 735.82C374.8 751.77 371.17 761.92 356.67 761.92C342.18 761.92 340 744.52 340 744.52L346.53 703.2L350.87 680.73Z" />
	<path id="Layer" class="shp9" d="M517.62 662.6C517.62 662.6 522.69 672.75 530.67 670.58C538.64 668.4 541.54 664.78 541.54 664.78C541.54 664.78 540.82 687.25 543.72 697.4C546.62 707.55 553.14 736.55 537.92 738C535.84 738.25 533.73 738.17 531.68 737.75C529.63 737.34 527.66 736.6 525.84 735.56C524.03 734.52 522.39 733.2 520.99 731.64C519.59 730.09 518.45 728.32 517.62 726.4L517.62 662.6L517.62 662.6Z" />
	<path id="Layer" class="shp6" d="M481.37 167.45C463.73 167.45 449.47 153.19 449.47 135.55C449.47 117.91 463.73 103.65 481.37 103.65C499.01 103.65 513.27 117.91 513.27 135.55C513.27 153.19 499.01 167.45 481.37 167.45Z" />
	<path id="Layer" class="shp9" d="M540.09 192.82C540.09 192.82 514.82 182.9 505.71 184.24C503.75 185.9 501.62 187.36 499.36 188.59C497.11 189.81 494.73 190.8 492.26 191.54C489.8 192.28 487.27 192.76 484.71 192.97C482.15 193.19 479.57 193.14 477.02 192.82C459.62 190.65 452.82 182.3 452.82 182.3C452.82 182.3 405.97 192.82 408.87 197.17C411.77 201.52 424.82 272.57 424.82 272.57C424.82 272.57 433.52 334.19 423.37 355.22C413.22 376.24 408.15 411.04 412.5 413.94C416.85 416.84 465.42 429.89 471.22 433.51C477.02 437.14 479.19 424.81 482.82 426.99C486.44 429.16 494.42 432.79 499.49 429.89C504.57 426.99 553.87 400.89 552.42 395.81C550.97 390.74 532.12 329.12 525.59 316.79C519.07 304.47 524.14 278.37 527.77 273.3C531.39 268.22 538.64 262.42 540.09 247.92C541.54 233.42 540.09 192.82 540.09 192.82Z" />
	<path id="Layer" class="shp9" d="M410.47 194.93C410.47 194.93 404.52 199.35 402.35 208.77C400.17 218.2 397.27 293.59 397.27 293.59C397.27 293.59 370.45 397.26 376.25 399.44C382.05 401.61 398.72 405.96 400.9 403.79C403.07 401.61 427.72 313.89 425.55 304.47C423.37 295.04 428.45 267.5 428.45 267.5L410.47 194.93Z" />
	<path id="Layer" class="shp6" d="M544.44 329.84C544.44 329.84 505.29 310.27 500.94 323.32C496.59 336.37 542.27 350.14 542.27 350.14C542.27 350.14 558.21 344.34 558.21 340.72C558.21 337.09 544.44 329.84 544.44 329.84Z" />
	<path id="Layer" class="shp9" d="M532.12 195.72L540.09 192.82C540.09 192.82 544.44 189.92 549.52 200.8C554.59 211.67 609.69 275.47 599.54 295.77C589.39 316.07 556.04 357.39 554.59 354.49C553.14 351.59 536.47 329.84 539.37 327.67C542.27 325.49 575.61 295.77 571.26 291.42C566.91 287.07 548.79 250.1 538.64 248.65C528.49 247.2 532.12 195.72 532.12 195.72Z" />
	<path id="Layer" class="shp3" d="M446.21 134.46C446.21 134.46 335.66 90.01 239.96 47.24C239.96 47.24 189.94 34.92 163.84 58.12C163.84 58.12 185.59 55.22 185.59 67.54C185.59 67.54 204.44 92.19 145.72 96.54C104.82 99.57 88.54 124.05 82.42 138.63C81.24 141.53 79.82 144.34 78.2 147.02C76.57 149.7 74.73 152.24 72.7 154.63C70.67 157.02 68.45 159.24 66.07 161.28C63.68 163.32 61.14 165.16 58.46 166.8C44.33 175.25 23.84 181.46 0 170.49C0 170.49 1.36 172.57 3.93 176.04C49.97 238.21 221.41 292.32 281.95 244.16C319.36 214.4 378.68 176.78 421.2 195.72C487.89 225.45 500.22 212.4 500.22 212.4L503.12 204.42C503.12 204.42 438.6 187.02 437.15 164.55C435.7 142.08 446.21 134.46 446.21 134.46Z" />
	<path id="Layer" class="shp3" d="M510.73 140.26C510.73 140.26 526.32 146.43 529.22 166.73C529.22 166.73 545.89 199.35 527.04 207.32C508.19 215.3 504.57 213.12 504.57 213.12L504.57 209.5C504.57 209.5 524.87 197.17 520.52 187.75C516.17 178.32 510.73 140.26 510.73 140.26Z" />
	<path id="Layer" class="shp3" d="M482.82 232.7C482.82 232.7 487.89 219.65 486.44 219.65C484.99 219.65 492.34 211.62 495.19 214.55C498.04 217.47 503.12 226.17 497.32 228.35C491.52 230.52 482.82 232.7 482.82 232.7Z" />
	<path id="Layer" class="shp3" d="M518.55 224.95C518.55 224.95 505.3 220.43 505.36 221.88C505.42 223.33 497.09 216.33 499.89 213.36C502.69 210.38 511.17 204.95 513.59 210.65C516.01 216.35 518.55 224.95 518.55 224.95Z" />
	<path id="Layer" class="shp3" d="M497.32 205.15C497.32 205.15 503.94 201.43 507.88 207.28C511.82 213.12 503.12 223.27 497.32 223.27C491.52 223.27 491.52 210.95 491.52 210.95L497.32 205.15Z" />
	<path id="Layer" class="shp4" d="M497.32 205.15C497.32 205.15 503.94 201.43 507.88 207.28C511.82 213.12 503.12 223.27 497.32 223.27C491.52 223.27 491.52 210.95 491.52 210.95L497.32 205.15Z" />
	<path id="Layer" class="shp5" d="M453.71 83.5C449.89 86.65 446.27 90.18 443.89 94.53C443.58 95.14 443.28 95.75 442.99 96.37C442.71 96.99 442.43 97.62 442.17 98.25C441.91 98.89 441.67 99.52 441.43 100.17C441.2 100.81 440.98 101.46 440.77 102.11C437.84 110.55 430.55 119.09 433.64 127.48C434.52 129.87 435.89 132.39 435.1 134.81C434.4 136.96 432.24 138.22 430.67 139.86C427.32 143.37 426.75 148.64 426.55 153.49C426.17 162.38 431.06 172.86 436.97 179.51C437.29 179.82 437.6 180.14 437.91 180.47C438.22 180.79 438.52 181.12 438.82 181.46C439.11 181.79 439.4 182.13 439.69 182.48C439.97 182.82 440.25 183.18 440.52 183.53C440.88 184.1 441.19 184.71 441.42 185.34C441.66 185.97 441.82 186.62 441.92 187.29C442.02 187.96 442.04 188.63 441.99 189.31C441.94 189.98 441.82 190.64 441.63 191.29L450.24 189.5C450.31 190.29 450.38 191.09 450.43 191.88C450.48 192.68 450.52 193.47 450.54 194.27C450.57 195.07 450.58 195.87 450.57 196.66C450.57 197.46 450.56 198.26 450.53 199.06C451.54 199.17 452.56 199.1 453.55 198.87C454.55 198.63 455.49 198.23 456.34 197.68C457.2 197.13 457.95 196.43 458.58 195.62C459.2 194.82 459.67 193.91 459.99 192.94C460.11 193.51 460.25 194.07 460.41 194.63C460.57 195.19 460.75 195.74 460.95 196.29C461.15 196.83 461.36 197.37 461.6 197.9C461.83 198.43 462.08 198.96 462.35 199.47C462.98 198.68 463.58 197.87 464.13 197.03C464.69 196.19 465.21 195.32 465.69 194.44C466.16 193.55 466.6 192.64 467 191.72C467.4 190.79 467.75 189.85 468.07 188.89C468.48 187.66 468.81 186.42 469.06 185.15C469.31 183.88 469.48 182.6 469.56 181.31C469.65 180.03 469.65 178.74 469.57 177.45C469.5 176.16 469.34 174.88 469.09 173.61C468.87 172.68 468.62 171.75 468.35 170.84C468.08 169.92 467.79 169 467.48 168.1C467.17 167.19 466.84 166.29 466.49 165.4C466.15 164.51 465.78 163.63 465.39 162.75C462.35 155.07 459.87 147.18 457.39 139.3C456.1 135.2 454.8 130.98 455.19 126.7L458.24 126.37C458.25 125.95 458.28 125.53 458.32 125.11C458.37 124.69 458.43 124.28 458.51 123.86C458.59 123.45 458.69 123.04 458.81 122.63C458.92 122.23 459.06 121.83 459.21 121.44C459.65 121.53 460.1 121.64 460.54 121.77C460.98 121.9 461.41 122.04 461.84 122.21C462.26 122.37 462.69 122.54 463.1 122.74C463.51 122.93 463.92 123.14 464.32 123.36L467.84 114.42C470.17 116.83 473.51 117.92 476.7 118.93L488.85 122.75L488.93 120.35C490.21 121.48 491.53 122.56 492.9 123.59C494.27 124.61 495.68 125.58 497.12 126.48C498.57 127.39 500.05 128.24 501.57 129.03C503.09 129.81 504.64 130.54 506.21 131.19C506.04 130.98 505.88 130.75 505.75 130.5C505.62 130.25 505.52 129.99 505.45 129.72C505.38 129.45 505.33 129.18 505.32 128.9C505.3 128.62 505.32 128.34 505.36 128.06C508.35 133.43 507.16 140.11 505.31 145.97C503.46 151.82 501.01 157.79 501.75 163.88C502.31 168.44 504.65 172.81 504.21 177.38C504 179.63 503.12 181.77 502.85 184.02C502.19 189.38 505.01 194.48 507.73 199.14L513.01 191.88C514.95 189.22 516.94 186.51 519.68 184.69C522.49 182.83 525.98 181.99 528.43 179.67C532.8 175.53 532.24 168.48 530.82 162.63C530.07 159.52 529.15 156.36 529.43 153.17C529.9 147.77 533.66 143.3 535.77 138.3C536.52 136.48 537.07 134.59 537.39 132.65C537.71 130.71 537.81 128.74 537.68 126.78C537.56 124.82 537.21 122.88 536.64 120.99C536.08 119.11 535.3 117.3 534.32 115.59C531.7 111.09 527.73 107.46 525.26 102.88C522.8 98.31 521.86 92.88 518.48 88.93C518.07 88.49 517.64 88.05 517.2 87.64C516.75 87.23 516.29 86.83 515.82 86.45C515.34 86.07 514.85 85.71 514.35 85.37C513.85 85.03 513.33 84.71 512.8 84.41C510.41 82.97 507.95 81.67 505.41 80.52C502.88 79.36 500.28 78.35 497.63 77.48C494.98 76.62 492.29 75.91 489.56 75.34C486.83 74.78 484.07 74.38 481.29 74.13C470.73 73.02 461.81 76.82 453.71 83.5Z" />
</svg>